# xmcd
#
# Track frame offsets:
#	150
#	17251
#	29349
#	42196
#	54233
#	64878
#	84002
#	99822
#	109043
#	125474
#	134852
#	147675
#	157657
#
# Disc length: 2329 seconds
#
# Revision: 1
# Processed by: cddbd v1.5.2PL0 Copyright (c) Steve Scherf et al.
# Submitted via: audiograbber 1.83.01
#
DISCID=9f09170d
DTITLE=Brightwater Junction - Old Crossroads
DYEAR=1999
DGENRE=Gospel
TTITLE0=The Old Crossroads
TTITLE1=Prettiest Flowers
TTITLE2=Leaning on the Everlasting Arms
TTITLE3=That's the Man I'm Looking For
TTITLE4=Are You Washed in the Blood
TTITLE5=Fallen Leaves
TTITLE6=From the Manger to the Cross
TTITLE7=Come On Little Children
TTITLE8=Far Side Banks of Jordan
TTITLE9=Get Behind Me Satan
TTITLE10=Six Hours on the Cross
TTITLE11=Traveling the Highway Home
TTITLE12=He Took Your Place
EXTD=
EXTT0=
EXTT1=
EXTT2=
EXTT3=
EXTT4=
EXTT5=
EXTT6=
EXTT7=
EXTT8=
EXTT9=
EXTT10=
EXTT11=
EXTT12=
PLAYORDER=
